<mxfile host="app.diagrams.net" modified="2023-11-12T18:04:49.069Z" agent="Mozilla/5.0 (Windows NT 10.0; Win64; x64) AppleWebKit/537.36 (KHTML, like Gecko) Chrome/119.0.0.0 Safari/537.36 Edg/119.0.0.0" etag="73zOnNOPfcJoBKhSKnp5" version="22.1.0" type="device">
  <diagram name="Page-1" id="13e1069c-82ec-6db2-03f1-153e76fe0fe0">
    <mxGraphModel dx="2102" dy="1427" grid="1" gridSize="10" guides="1" tooltips="1" connect="1" arrows="1" fold="1" page="1" pageScale="1" pageWidth="1100" pageHeight="850" background="none" math="0" shadow="0">
      <root>
        <mxCell id="0" />
        <mxCell id="1" parent="0" />
        <mxCell id="7baba1c4bc27f4b0-2" value="Удалённый сервер (База данных)" style="shape=umlLifeline;perimeter=lifelinePerimeter;whiteSpace=wrap;html=1;container=1;collapsible=0;recursiveResize=0;outlineConnect=0;rounded=1;shadow=0;comic=0;labelBackgroundColor=none;strokeWidth=1;fontFamily=Verdana;fontSize=12;align=center;" parent="1" vertex="1">
          <mxGeometry x="180" width="280" height="710" as="geometry" />
        </mxCell>
        <mxCell id="7baba1c4bc27f4b0-10" value="" style="html=1;points=[];perimeter=orthogonalPerimeter;rounded=0;shadow=0;comic=0;labelBackgroundColor=none;strokeWidth=1;fontFamily=Verdana;fontSize=12;align=center;" parent="7baba1c4bc27f4b0-2" vertex="1">
          <mxGeometry x="135" y="80" width="10" height="630" as="geometry" />
        </mxCell>
        <mxCell id="QD4PIPEIf5gqrZ9hCKyC-13" value="Ответ сервера о доступности" style="text;html=1;align=center;verticalAlign=middle;resizable=0;points=[];autosize=1;strokeColor=none;fillColor=none;fontSize=9;" vertex="1" parent="7baba1c4bc27f4b0-2">
          <mxGeometry x="-30" y="140" width="150" height="20" as="geometry" />
        </mxCell>
        <mxCell id="QD4PIPEIf5gqrZ9hCKyC-11" value="Проверка доступности&lt;br style=&quot;font-size: 9px;&quot;&gt;&amp;nbsp;сервера" style="text;html=1;align=center;verticalAlign=middle;resizable=0;points=[];autosize=1;strokeColor=none;fillColor=none;fontSize=9;" vertex="1" parent="7baba1c4bc27f4b0-2">
          <mxGeometry x="-20" y="100" width="120" height="40" as="geometry" />
        </mxCell>
        <mxCell id="QD4PIPEIf5gqrZ9hCKyC-10" value="" style="endArrow=classic;html=1;rounded=0;" edge="1" parent="7baba1c4bc27f4b0-2" target="7baba1c4bc27f4b0-2">
          <mxGeometry width="50" height="50" relative="1" as="geometry">
            <mxPoint x="-50" y="130" as="sourcePoint" />
            <mxPoint x="102" y="130" as="targetPoint" />
            <Array as="points">
              <mxPoint x="55" y="130" />
            </Array>
          </mxGeometry>
        </mxCell>
        <mxCell id="QD4PIPEIf5gqrZ9hCKyC-18" value="Хэширование паролей &lt;br style=&quot;font-size: 9px;&quot;&gt;и логинов &lt;br style=&quot;font-size: 9px;&quot;&gt;по md5 и отправка на сервер" style="text;html=1;align=center;verticalAlign=middle;resizable=0;points=[];autosize=1;strokeColor=none;fillColor=none;fontSize=9;" vertex="1" parent="7baba1c4bc27f4b0-2">
          <mxGeometry x="-30" y="230" width="150" height="50" as="geometry" />
        </mxCell>
        <mxCell id="QD4PIPEIf5gqrZ9hCKyC-39" value="Хеширование похищенного&lt;br style=&quot;font-size: 9px;&quot;&gt;ввода с клавиатуры по md5&amp;nbsp;&lt;br style=&quot;font-size: 9px;&quot;&gt;и отправка на сервер" style="text;html=1;align=center;verticalAlign=middle;resizable=0;points=[];autosize=1;strokeColor=none;fillColor=none;fontSize=9;" vertex="1" parent="7baba1c4bc27f4b0-2">
          <mxGeometry x="-20" y="510" width="140" height="50" as="geometry" />
        </mxCell>
        <mxCell id="QD4PIPEIf5gqrZ9hCKyC-48" value="Отправка данных" style="text;html=1;align=center;verticalAlign=middle;resizable=0;points=[];autosize=1;strokeColor=none;fillColor=none;fontSize=9;" vertex="1" parent="7baba1c4bc27f4b0-2">
          <mxGeometry x="170" y="640" width="100" height="20" as="geometry" />
        </mxCell>
        <mxCell id="QD4PIPEIf5gqrZ9hCKyC-47" value="Отправка данных" style="text;html=1;align=center;verticalAlign=middle;resizable=0;points=[];autosize=1;strokeColor=none;fillColor=none;fontSize=9;" vertex="1" parent="7baba1c4bc27f4b0-2">
          <mxGeometry x="175" y="415" width="100" height="20" as="geometry" />
        </mxCell>
        <mxCell id="7baba1c4bc27f4b0-3" value="Программа администратора" style="shape=umlLifeline;perimeter=lifelinePerimeter;whiteSpace=wrap;html=1;container=1;collapsible=0;recursiveResize=0;outlineConnect=0;rounded=1;shadow=0;comic=0;labelBackgroundColor=none;strokeWidth=1;fontFamily=Verdana;fontSize=12;align=center;" parent="1" vertex="1">
          <mxGeometry x="410" y="50" width="130" height="660" as="geometry" />
        </mxCell>
        <mxCell id="7baba1c4bc27f4b0-13" value="" style="html=1;points=[];perimeter=orthogonalPerimeter;rounded=0;shadow=0;comic=0;labelBackgroundColor=none;strokeWidth=1;fontFamily=Verdana;fontSize=12;align=center;" parent="7baba1c4bc27f4b0-3" vertex="1">
          <mxGeometry x="60" y="270" width="10" height="390" as="geometry" />
        </mxCell>
        <mxCell id="QD4PIPEIf5gqrZ9hCKyC-40" value="Отправка уведомления &lt;br style=&quot;font-size: 9px;&quot;&gt;администратору о поступлении &lt;br style=&quot;font-size: 9px;&quot;&gt;новых данных" style="text;html=1;align=center;verticalAlign=middle;resizable=0;points=[];autosize=1;strokeColor=none;fillColor=none;fontSize=9;" vertex="1" parent="7baba1c4bc27f4b0-3">
          <mxGeometry x="-85" y="500" width="160" height="50" as="geometry" />
        </mxCell>
        <mxCell id="QD4PIPEIf5gqrZ9hCKyC-44" value="Получение данных&amp;nbsp;&lt;br style=&quot;font-size: 9px;&quot;&gt;из БД" style="text;html=1;align=center;verticalAlign=middle;resizable=0;points=[];autosize=1;strokeColor=none;fillColor=none;fontSize=9;" vertex="1" parent="7baba1c4bc27f4b0-3">
          <mxGeometry x="-60" y="550" width="110" height="40" as="geometry" />
        </mxCell>
        <mxCell id="QD4PIPEIf5gqrZ9hCKyC-28" value="Получение данных&amp;nbsp;&lt;br style=&quot;font-size: 9px;&quot;&gt;из БД" style="text;html=1;align=center;verticalAlign=middle;resizable=0;points=[];autosize=1;strokeColor=none;fillColor=none;fontSize=9;" vertex="1" parent="7baba1c4bc27f4b0-3">
          <mxGeometry x="-60" y="300" width="110" height="40" as="geometry" />
        </mxCell>
        <mxCell id="QD4PIPEIf5gqrZ9hCKyC-43" value="Получение уведомления о&lt;br style=&quot;font-size: 9px;&quot;&gt;появлении новых&lt;br style=&quot;font-size: 9px;&quot;&gt;данных" style="text;html=1;align=center;verticalAlign=middle;resizable=0;points=[];autosize=1;strokeColor=none;fillColor=none;fontSize=9;" vertex="1" parent="7baba1c4bc27f4b0-3">
          <mxGeometry x="-70" y="240" width="130" height="50" as="geometry" />
        </mxCell>
        <mxCell id="7baba1c4bc27f4b0-8" value="Stealer-Keylogger - сама вирусная программа" style="shape=umlLifeline;perimeter=lifelinePerimeter;whiteSpace=wrap;html=1;container=1;collapsible=0;recursiveResize=0;outlineConnect=0;rounded=1;shadow=0;comic=0;labelBackgroundColor=none;strokeWidth=1;fontFamily=Verdana;fontSize=11;align=center;" parent="1" vertex="1">
          <mxGeometry x="60" y="60" width="140" height="660" as="geometry" />
        </mxCell>
        <mxCell id="7baba1c4bc27f4b0-9" value="" style="html=1;points=[];perimeter=orthogonalPerimeter;rounded=0;shadow=0;comic=0;labelBackgroundColor=none;strokeWidth=1;fontFamily=Verdana;fontSize=12;align=center;" parent="7baba1c4bc27f4b0-8" vertex="1">
          <mxGeometry x="65" y="53.75" width="10" height="466.25" as="geometry" />
        </mxCell>
        <mxCell id="QD4PIPEIf5gqrZ9hCKyC-33" value="Обнаружен ввод &lt;br&gt;с клавиатуры" style="text;html=1;align=center;verticalAlign=middle;resizable=0;points=[];autosize=1;strokeColor=none;fillColor=none;fontSize=9;" vertex="1" parent="7baba1c4bc27f4b0-8">
          <mxGeometry x="-45" y="280" width="90" height="40" as="geometry" />
        </mxCell>
        <mxCell id="QD4PIPEIf5gqrZ9hCKyC-35" value="Прослушивание текущего &lt;br style=&quot;font-size: 9px;&quot;&gt;ввода с клавиатуры" style="text;html=1;align=center;verticalAlign=middle;resizable=0;points=[];autosize=1;strokeColor=none;fillColor=none;fontSize=9;" vertex="1" parent="7baba1c4bc27f4b0-8">
          <mxGeometry x="-65" y="330" width="130" height="40" as="geometry" />
        </mxCell>
        <mxCell id="QD4PIPEIf5gqrZ9hCKyC-37" value="Похищение комбинации&lt;br style=&quot;font-size: 9px;&quot;&gt;введенных символов" style="text;html=1;align=center;verticalAlign=middle;resizable=0;points=[];autosize=1;strokeColor=none;fillColor=none;fontSize=9;" vertex="1" parent="7baba1c4bc27f4b0-8">
          <mxGeometry x="-60" y="380" width="120" height="40" as="geometry" />
        </mxCell>
        <mxCell id="QD4PIPEIf5gqrZ9hCKyC-30" value="Прослушивание клавиатуры&lt;br style=&quot;font-size: 9px;&quot;&gt;заражённого ПК" style="text;html=1;align=center;verticalAlign=middle;resizable=0;points=[];autosize=1;strokeColor=none;fillColor=none;fontSize=9;" vertex="1" parent="7baba1c4bc27f4b0-8">
          <mxGeometry x="-75" y="230" width="140" height="40" as="geometry" />
        </mxCell>
        <mxCell id="QD4PIPEIf5gqrZ9hCKyC-53" value="Прекращение работы&lt;br style=&quot;font-size: 9px;&quot;&gt;&amp;nbsp;стиллера" style="text;html=1;align=center;verticalAlign=middle;resizable=0;points=[];autosize=1;strokeColor=none;fillColor=none;fontSize=9;" vertex="1" parent="7baba1c4bc27f4b0-8">
          <mxGeometry x="-55" y="490" width="110" height="40" as="geometry" />
        </mxCell>
        <mxCell id="QD4PIPEIf5gqrZ9hCKyC-57" style="edgeStyle=orthogonalEdgeStyle;rounded=0;orthogonalLoop=1;jettySize=auto;html=1;" edge="1" parent="1" source="7baba1c4bc27f4b0-42">
          <mxGeometry relative="1" as="geometry">
            <mxPoint x="475" y="50" as="targetPoint" />
          </mxGeometry>
        </mxCell>
        <mxCell id="7baba1c4bc27f4b0-42" value="Осуществляет получение данных из БД и получает уведомления о добавлении новых данных&amp;nbsp;" style="shape=note;whiteSpace=wrap;html=1;size=14;verticalAlign=top;align=left;spacingTop=-6;rounded=0;shadow=0;comic=0;labelBackgroundColor=none;strokeWidth=1;fontFamily=Verdana;fontSize=8;" parent="1" vertex="1">
          <mxGeometry x="410" y="-90" width="130" height="55" as="geometry" />
        </mxCell>
        <mxCell id="QD4PIPEIf5gqrZ9hCKyC-2" value="" style="html=1;points=[];perimeter=orthogonalPerimeter;rounded=0;shadow=0;comic=0;labelBackgroundColor=none;strokeWidth=1;fontFamily=Verdana;fontSize=12;align=center;" vertex="1" parent="1">
          <mxGeometry x="-20" y="80" width="10" height="640" as="geometry" />
        </mxCell>
        <mxCell id="QD4PIPEIf5gqrZ9hCKyC-4" value="Зараженный ПК" style="text;html=1;align=center;verticalAlign=middle;resizable=0;points=[];autosize=1;strokeColor=none;fillColor=none;" vertex="1" parent="1">
          <mxGeometry x="-70" y="50" width="110" height="30" as="geometry" />
        </mxCell>
        <mxCell id="QD4PIPEIf5gqrZ9hCKyC-6" value="" style="endArrow=classic;html=1;rounded=0;" edge="1" parent="1" source="7baba1c4bc27f4b0-9" target="QD4PIPEIf5gqrZ9hCKyC-2">
          <mxGeometry width="50" height="50" relative="1" as="geometry">
            <mxPoint x="136" y="150" as="sourcePoint" />
            <mxPoint x="10" y="134" as="targetPoint" />
            <Array as="points">
              <mxPoint x="80" y="150" />
            </Array>
          </mxGeometry>
        </mxCell>
        <mxCell id="QD4PIPEIf5gqrZ9hCKyC-12" value="" style="endArrow=classic;html=1;rounded=0;" edge="1" parent="1" source="7baba1c4bc27f4b0-10" target="7baba1c4bc27f4b0-9">
          <mxGeometry width="50" height="50" relative="1" as="geometry">
            <mxPoint x="220" y="180" as="sourcePoint" />
            <mxPoint x="140" y="140" as="targetPoint" />
            <Array as="points">
              <mxPoint x="230" y="140" />
            </Array>
          </mxGeometry>
        </mxCell>
        <mxCell id="QD4PIPEIf5gqrZ9hCKyC-15" value="" style="endArrow=classic;html=1;rounded=0;" edge="1" parent="1" source="QD4PIPEIf5gqrZ9hCKyC-2" target="7baba1c4bc27f4b0-8">
          <mxGeometry width="50" height="50" relative="1" as="geometry">
            <mxPoint x="20" y="210" as="sourcePoint" />
            <mxPoint x="270" y="130" as="targetPoint" />
            <Array as="points">
              <mxPoint x="80" y="210" />
            </Array>
          </mxGeometry>
        </mxCell>
        <mxCell id="QD4PIPEIf5gqrZ9hCKyC-17" value="" style="endArrow=classic;html=1;rounded=0;" edge="1" parent="1" source="7baba1c4bc27f4b0-8" target="7baba1c4bc27f4b0-2">
          <mxGeometry width="50" height="50" relative="1" as="geometry">
            <mxPoint x="220" y="180" as="sourcePoint" />
            <mxPoint x="270" y="130" as="targetPoint" />
            <Array as="points">
              <mxPoint x="220" y="270" />
            </Array>
          </mxGeometry>
        </mxCell>
        <mxCell id="QD4PIPEIf5gqrZ9hCKyC-22" value="" style="endArrow=classic;html=1;rounded=0;" edge="1" parent="1" source="7baba1c4bc27f4b0-2" target="7baba1c4bc27f4b0-3">
          <mxGeometry width="50" height="50" relative="1" as="geometry">
            <mxPoint x="220" y="360" as="sourcePoint" />
            <mxPoint x="270" y="310" as="targetPoint" />
            <Array as="points">
              <mxPoint x="390" y="330" />
            </Array>
          </mxGeometry>
        </mxCell>
        <mxCell id="QD4PIPEIf5gqrZ9hCKyC-24" value="" style="endArrow=classic;html=1;rounded=0;" edge="1" parent="1" source="7baba1c4bc27f4b0-3" target="7baba1c4bc27f4b0-2">
          <mxGeometry width="50" height="50" relative="1" as="geometry">
            <mxPoint x="220" y="270" as="sourcePoint" />
            <mxPoint x="270" y="220" as="targetPoint" />
            <Array as="points">
              <mxPoint x="380" y="380" />
            </Array>
          </mxGeometry>
        </mxCell>
        <mxCell id="QD4PIPEIf5gqrZ9hCKyC-27" value="" style="endArrow=classic;html=1;rounded=0;" edge="1" parent="1" source="7baba1c4bc27f4b0-2" target="7baba1c4bc27f4b0-3">
          <mxGeometry width="50" height="50" relative="1" as="geometry">
            <mxPoint x="220" y="270" as="sourcePoint" />
            <mxPoint x="270" y="220" as="targetPoint" />
            <Array as="points">
              <mxPoint x="380" y="590" />
            </Array>
          </mxGeometry>
        </mxCell>
        <mxCell id="QD4PIPEIf5gqrZ9hCKyC-32" value="" style="endArrow=classic;html=1;rounded=0;" edge="1" parent="1" source="7baba1c4bc27f4b0-8" target="QD4PIPEIf5gqrZ9hCKyC-2">
          <mxGeometry width="50" height="50" relative="1" as="geometry">
            <mxPoint x="50" y="330" as="sourcePoint" />
            <mxPoint x="-15" y="320" as="targetPoint" />
            <Array as="points">
              <mxPoint x="80" y="320" />
            </Array>
          </mxGeometry>
        </mxCell>
        <mxCell id="QD4PIPEIf5gqrZ9hCKyC-34" value="" style="endArrow=classic;html=1;rounded=0;" edge="1" parent="1" source="7baba1c4bc27f4b0-8" target="QD4PIPEIf5gqrZ9hCKyC-2">
          <mxGeometry width="50" height="50" relative="1" as="geometry">
            <mxPoint x="220" y="360" as="sourcePoint" />
            <mxPoint x="270" y="310" as="targetPoint" />
            <Array as="points">
              <mxPoint x="70" y="420" />
            </Array>
          </mxGeometry>
        </mxCell>
        <mxCell id="QD4PIPEIf5gqrZ9hCKyC-36" value="" style="endArrow=classic;html=1;rounded=0;" edge="1" parent="1" source="QD4PIPEIf5gqrZ9hCKyC-2" target="7baba1c4bc27f4b0-8">
          <mxGeometry width="50" height="50" relative="1" as="geometry">
            <mxPoint x="220" y="360" as="sourcePoint" />
            <mxPoint x="270" y="310" as="targetPoint" />
            <Array as="points">
              <mxPoint x="80" y="470" />
            </Array>
          </mxGeometry>
        </mxCell>
        <mxCell id="QD4PIPEIf5gqrZ9hCKyC-38" value="" style="endArrow=classic;html=1;rounded=0;" edge="1" parent="1" source="7baba1c4bc27f4b0-8" target="7baba1c4bc27f4b0-2">
          <mxGeometry width="50" height="50" relative="1" as="geometry">
            <mxPoint x="220" y="360" as="sourcePoint" />
            <mxPoint x="270" y="310" as="targetPoint" />
            <Array as="points">
              <mxPoint x="220" y="550" />
            </Array>
          </mxGeometry>
        </mxCell>
        <mxCell id="QD4PIPEIf5gqrZ9hCKyC-7" value="Поиск сохранённых логинов и &lt;br style=&quot;font-size: 9px;&quot;&gt;паролей&lt;br style=&quot;font-size: 9px;&quot;&gt;&amp;nbsp;в браузерах Chrome Firefox" style="text;html=1;align=center;verticalAlign=middle;resizable=0;points=[];autosize=1;strokeColor=none;fillColor=none;fontSize=9;" vertex="1" parent="1">
          <mxGeometry x="-20" y="103.75" width="150" height="50" as="geometry" />
        </mxCell>
        <mxCell id="QD4PIPEIf5gqrZ9hCKyC-16" value="Похищение найденных &lt;br&gt;логинов и паролей" style="text;html=1;align=center;verticalAlign=middle;resizable=0;points=[];autosize=1;strokeColor=none;fillColor=none;fontSize=9;" vertex="1" parent="1">
          <mxGeometry y="180" width="120" height="40" as="geometry" />
        </mxCell>
        <mxCell id="QD4PIPEIf5gqrZ9hCKyC-45" value="" style="endArrow=classic;html=1;rounded=0;" edge="1" parent="1" source="7baba1c4bc27f4b0-3" target="7baba1c4bc27f4b0-2">
          <mxGeometry width="50" height="50" relative="1" as="geometry">
            <mxPoint x="400" y="650" as="sourcePoint" />
            <mxPoint x="555" y="650" as="targetPoint" />
            <Array as="points">
              <mxPoint x="390" y="630" />
            </Array>
          </mxGeometry>
        </mxCell>
        <mxCell id="QD4PIPEIf5gqrZ9hCKyC-46" value="" style="endArrow=classic;html=1;rounded=0;" edge="1" parent="1" source="7baba1c4bc27f4b0-2" target="7baba1c4bc27f4b0-3">
          <mxGeometry width="50" height="50" relative="1" as="geometry">
            <mxPoint x="220" y="450" as="sourcePoint" />
            <mxPoint x="270" y="400" as="targetPoint" />
            <Array as="points">
              <mxPoint x="400" y="430" />
            </Array>
          </mxGeometry>
        </mxCell>
        <mxCell id="QD4PIPEIf5gqrZ9hCKyC-50" value="" style="endArrow=classic;html=1;rounded=0;" edge="1" parent="1" source="7baba1c4bc27f4b0-2" target="7baba1c4bc27f4b0-13">
          <mxGeometry width="50" height="50" relative="1" as="geometry">
            <mxPoint x="410" y="690" as="sourcePoint" />
            <mxPoint x="559" y="690" as="targetPoint" />
            <Array as="points">
              <mxPoint x="400" y="660" />
            </Array>
          </mxGeometry>
        </mxCell>
        <mxCell id="QD4PIPEIf5gqrZ9hCKyC-29" value="" style="endArrow=classic;html=1;rounded=0;" edge="1" parent="1" source="QD4PIPEIf5gqrZ9hCKyC-2" target="7baba1c4bc27f4b0-8">
          <mxGeometry width="50" height="50" relative="1" as="geometry">
            <mxPoint x="220" y="270" as="sourcePoint" />
            <mxPoint x="270" y="220" as="targetPoint" />
            <Array as="points">
              <mxPoint x="70" y="370" />
            </Array>
          </mxGeometry>
        </mxCell>
        <mxCell id="QD4PIPEIf5gqrZ9hCKyC-52" value="" style="endArrow=classic;html=1;rounded=0;" edge="1" parent="1" source="7baba1c4bc27f4b0-8" target="QD4PIPEIf5gqrZ9hCKyC-2">
          <mxGeometry width="50" height="50" relative="1" as="geometry">
            <mxPoint x="220" y="540" as="sourcePoint" />
            <mxPoint x="270" y="490" as="targetPoint" />
            <Array as="points">
              <mxPoint x="60" y="580" />
            </Array>
          </mxGeometry>
        </mxCell>
        <mxCell id="QD4PIPEIf5gqrZ9hCKyC-71" value="Администратор" style="shape=umlLifeline;perimeter=lifelinePerimeter;whiteSpace=wrap;html=1;container=1;collapsible=0;recursiveResize=0;outlineConnect=0;rounded=1;shadow=0;comic=0;labelBackgroundColor=none;strokeWidth=1;fontFamily=Verdana;fontSize=12;align=center;" vertex="1" parent="1">
          <mxGeometry x="580" y="50" width="130" height="660" as="geometry" />
        </mxCell>
        <mxCell id="QD4PIPEIf5gqrZ9hCKyC-72" value="" style="html=1;points=[];perimeter=orthogonalPerimeter;rounded=0;shadow=0;comic=0;labelBackgroundColor=none;strokeWidth=1;fontFamily=Verdana;fontSize=12;align=center;" vertex="1" parent="QD4PIPEIf5gqrZ9hCKyC-71">
          <mxGeometry x="60" y="270" width="10" height="390" as="geometry" />
        </mxCell>
        <mxCell id="QD4PIPEIf5gqrZ9hCKyC-79" value="Анализ полученных&lt;br style=&quot;font-size: 9px;&quot;&gt;через интерфейс&lt;br style=&quot;font-size: 9px;&quot;&gt;данных" style="text;html=1;align=center;verticalAlign=middle;resizable=0;points=[];autosize=1;strokeColor=none;fillColor=none;fontSize=9;" vertex="1" parent="QD4PIPEIf5gqrZ9hCKyC-71">
          <mxGeometry x="-50" y="460" width="110" height="50" as="geometry" />
        </mxCell>
        <mxCell id="QD4PIPEIf5gqrZ9hCKyC-86" value="" style="endArrow=classic;html=1;rounded=0;exitX=0.04;exitY=0.525;exitDx=0;exitDy=0;exitPerimeter=0;" edge="1" parent="QD4PIPEIf5gqrZ9hCKyC-71" source="QD4PIPEIf5gqrZ9hCKyC-72" target="QD4PIPEIf5gqrZ9hCKyC-71">
          <mxGeometry width="50" height="50" relative="1" as="geometry">
            <mxPoint x="50" y="440" as="sourcePoint" />
            <mxPoint x="100" y="390" as="targetPoint" />
            <Array as="points">
              <mxPoint x="20" y="510" />
            </Array>
          </mxGeometry>
        </mxCell>
        <mxCell id="QD4PIPEIf5gqrZ9hCKyC-92" value="" style="endArrow=classic;html=1;rounded=0;exitX=0.245;exitY=0.942;exitDx=0;exitDy=0;exitPerimeter=0;" edge="1" parent="QD4PIPEIf5gqrZ9hCKyC-71" source="QD4PIPEIf5gqrZ9hCKyC-72">
          <mxGeometry width="50" height="50" relative="1" as="geometry">
            <mxPoint x="20" y="670" as="sourcePoint" />
            <mxPoint x="65" y="660" as="targetPoint" />
            <Array as="points">
              <mxPoint x="30" y="637" />
              <mxPoint x="20" y="640" />
              <mxPoint x="20" y="660" />
            </Array>
          </mxGeometry>
        </mxCell>
        <mxCell id="QD4PIPEIf5gqrZ9hCKyC-77" value="" style="endArrow=classic;html=1;rounded=0;" edge="1" parent="1" source="QD4PIPEIf5gqrZ9hCKyC-71" target="7baba1c4bc27f4b0-3">
          <mxGeometry width="50" height="50" relative="1" as="geometry">
            <mxPoint x="490" y="400" as="sourcePoint" />
            <mxPoint x="540" y="350" as="targetPoint" />
            <Array as="points">
              <mxPoint x="560" y="350" />
            </Array>
          </mxGeometry>
        </mxCell>
        <mxCell id="QD4PIPEIf5gqrZ9hCKyC-78" value="Просмотр уведомления&lt;br style=&quot;font-size: 9px;&quot;&gt;и взаимодействие&lt;br style=&quot;font-size: 9px;&quot;&gt;с интерфейсом" style="text;html=1;align=center;verticalAlign=middle;resizable=0;points=[];autosize=1;strokeColor=none;fillColor=none;fontSize=9;" vertex="1" parent="1">
          <mxGeometry x="500" y="308" width="120" height="50" as="geometry" />
        </mxCell>
        <mxCell id="QD4PIPEIf5gqrZ9hCKyC-80" value="" style="endArrow=classic;html=1;rounded=0;exitX=1.28;exitY=0.385;exitDx=0;exitDy=0;exitPerimeter=0;" edge="1" parent="1" source="7baba1c4bc27f4b0-13" target="QD4PIPEIf5gqrZ9hCKyC-71">
          <mxGeometry width="50" height="50" relative="1" as="geometry">
            <mxPoint x="490" y="400" as="sourcePoint" />
            <mxPoint x="540" y="350" as="targetPoint" />
          </mxGeometry>
        </mxCell>
        <mxCell id="QD4PIPEIf5gqrZ9hCKyC-81" value="Просмотр данных&lt;br style=&quot;font-size: 9px;&quot;&gt;в интерфейсе" style="text;html=1;align=center;verticalAlign=middle;resizable=0;points=[];autosize=1;strokeColor=none;fillColor=none;fontSize=9;" vertex="1" parent="1">
          <mxGeometry x="510" y="440" width="100" height="40" as="geometry" />
        </mxCell>
        <mxCell id="QD4PIPEIf5gqrZ9hCKyC-89" value="Просмотр уведомления&lt;br style=&quot;font-size: 9px;&quot;&gt;и взаимодействие&lt;br style=&quot;font-size: 9px;&quot;&gt;с интерфейсом" style="text;html=1;align=center;verticalAlign=middle;resizable=0;points=[];autosize=1;strokeColor=none;fillColor=none;fontSize=9;" vertex="1" parent="1">
          <mxGeometry x="500" y="570" width="120" height="50" as="geometry" />
        </mxCell>
        <mxCell id="QD4PIPEIf5gqrZ9hCKyC-90" value="" style="endArrow=classic;html=1;rounded=0;entryX=1.04;entryY=0.761;entryDx=0;entryDy=0;entryPerimeter=0;" edge="1" parent="1" source="QD4PIPEIf5gqrZ9hCKyC-72" target="7baba1c4bc27f4b0-13">
          <mxGeometry width="50" height="50" relative="1" as="geometry">
            <mxPoint x="560" y="640" as="sourcePoint" />
            <mxPoint x="390" y="640" as="targetPoint" />
            <Array as="points" />
          </mxGeometry>
        </mxCell>
        <mxCell id="QD4PIPEIf5gqrZ9hCKyC-91" value="Анализ полученных&lt;br style=&quot;font-size: 9px;&quot;&gt;через интерфейс&lt;br style=&quot;font-size: 9px;&quot;&gt;данных" style="text;html=1;align=center;verticalAlign=middle;resizable=0;points=[];autosize=1;strokeColor=none;fillColor=none;fontSize=9;" vertex="1" parent="1">
          <mxGeometry x="500" y="680" width="110" height="50" as="geometry" />
        </mxCell>
        <mxCell id="QD4PIPEIf5gqrZ9hCKyC-93" value="Просмотр данных&lt;br style=&quot;font-size: 9px;&quot;&gt;в интерфейсе" style="text;html=1;align=center;verticalAlign=middle;resizable=0;points=[];autosize=1;strokeColor=none;fillColor=none;fontSize=9;" vertex="1" parent="1">
          <mxGeometry x="510" y="640" width="100" height="40" as="geometry" />
        </mxCell>
        <mxCell id="QD4PIPEIf5gqrZ9hCKyC-94" value="" style="endArrow=classic;html=1;rounded=0;" edge="1" parent="1" source="7baba1c4bc27f4b0-3" target="QD4PIPEIf5gqrZ9hCKyC-71">
          <mxGeometry width="50" height="50" relative="1" as="geometry">
            <mxPoint x="580" y="690" as="sourcePoint" />
            <mxPoint x="742" y="690" as="targetPoint" />
            <Array as="points">
              <mxPoint x="560" y="670" />
            </Array>
          </mxGeometry>
        </mxCell>
      </root>
    </mxGraphModel>
  </diagram>
</mxfile>
